<svg xmlns="http://www.w3.org/2000/svg" xmlns:xlink="http://www.w3.org/1999/xlink" width="28" height="28" viewBox="0 0 28 28">
  <defs>
    <path id="slowball-a" d="M3.5,5 L15,0 L22.5,16 L28,16 L28,28 L17,28 C17.1822046,23.3333333 17.1822046,21 17,21 C16.8177954,21 11.1511287,19.5 0,16.5 L3.5,5 Z"/>
    <circle id="slowball-d" cx="23" cy="22" r="5"/>
    <filter id="slowball-c" width="110%" x="-5%" y="-5%" filterUnits="objectBoundingBox">
      <feOffset dy="1" in="SourceAlpha" result="shadowOffsetOuter1"/>
      <feColorMatrix in="shadowOffsetOuter1" values="0 0 0 0 0   0 0 0 0 0   0 0 0 0 0  0 0 0 0.2 0"/>
    </filter>
    <filter id="slowball-e" width="140%" height="150%" x="-20%" y="-20%" filterUnits="objectBoundingBox">
      <feGaussianBlur in="SourceAlpha" result="shadowBlurInner1" stdDeviation="1"/>
      <feOffset dx="2" dy="2" in="shadowBlurInner1" result="shadowOffsetInner1"/>
      <feComposite in="shadowOffsetInner1" in2="SourceAlpha" k2="-1" k3="1" operator="arithmetic" result="shadowInnerInner1"/>
      <feColorMatrix in="shadowInnerInner1" result="shadowMatrixInner1" values="0 0 0 0 1   0 0 0 0 1   0 0 0 0 1  0 0 0 0.821586277 0"/>
      <feGaussianBlur in="SourceAlpha" result="shadowBlurInner2" stdDeviation="1"/>
      <feOffset dx="-1" dy="-2" in="shadowBlurInner2" result="shadowOffsetInner2"/>
      <feComposite in="shadowOffsetInner2" in2="SourceAlpha" k2="-1" k3="1" operator="arithmetic" result="shadowInnerInner2"/>
      <feColorMatrix in="shadowInnerInner2" result="shadowMatrixInner2" values="0 0 0 0 0   0 0 0 0 0   0 0 0 0 0  0 0 0 0.301092618 0"/>
      <feMerge>
        <feMergeNode in="shadowMatrixInner1"/>
        <feMergeNode in="shadowMatrixInner2"/>
      </feMerge>
    </filter>
  </defs>
  <g fill="none" fill-rule="evenodd">
    <mask id="slowball-b" fill="#fff">
      <use xlink:href="#slowball-a"/>
    </mask>
    <path stroke="#FFF" stroke-opacity=".489" d="M21.676484 14.6164092C18.5952064 15.1650269 16.1650269 17.5952064 15.6164092 20.676484L21.676484 14.6164092zM21.715057 11.5778362C16.943311 12.160068 13.160068 15.943311 12.5778362 20.715057L21.715057 11.5778362z" mask="url(#slowball-b)"/>
    <path stroke="#FFF" stroke-opacity=".489" d="M21.7343448,8.5585484 C15.288661,9.15786377 10.1578638,14.288661 9.5585484,20.7343448 L21.7343448,8.5585484 Z" mask="url(#slowball-b)"/>
    <path stroke="#FFF" stroke-opacity=".489" d="M21.7459504,5.54694283 C13.6330413,6.15662927 7.15662927,12.6330413 6.54694283,20.7459504 L21.7459504,5.54694283 Z" mask="url(#slowball-b)"/>
    <path stroke="#FFF" stroke-opacity=".489" d="M21.7537087,2.53918456 C11.976973,3.15584326 4.15584326,10.976973 3.53918456,20.7537087 L21.7537087,2.53918456 Z" mask="url(#slowball-b)"/>
    <path stroke="#FFF" stroke-opacity=".489" d="M21.7592631,-0.466369853 C10.3206619,0.15530011 1.15530011,9.32066195 0.533630147,20.7592631 L21.7592631,-0.466369853 Z" mask="url(#slowball-b)"/>
    <g mask="url(#slowball-b)">
      <use fill="#000" filter="url(#slowball-c)" xlink:href="#slowball-d"/>
      <use fill="#D8D8D8" xlink:href="#slowball-d"/>
      <use fill="#000" filter="url(#slowball-e)" xlink:href="#slowball-d"/>
    </g>
  </g>
</svg>
